<!DOCTYPE svg PUBLIC "-//W3C//DTD SVG 20010904//EN" "http://www.w3.org/TR/2001/REC-SVG-20010904/DTD/svg10.dtd">
<svg version="1.0" xmlns="http://www.w3.org/2000/svg" width="377px" height="352px" viewBox="0 0 3770 3520" preserveAspectRatio="xMidYMid meet">
<g id="layer101" fill="#231f20" stroke="none">
 <path d="M0 1760 l0 -1760 1885 0 1885 0 0 1760 0 1760 -1885 0 -1885 0 0 -1760z"/>
 </g>
<g id="layer102" fill="#ffffff" stroke="none">
 <path d="M0 1760 l0 -1760 1885 0 1885 0 0 1760 0 1760 -1885 0 -1885 0 0 -1760z m3690 1715 c0 -5 -289 -486 -1355 -2256 l-112 -186 298 -496 298 -497 -381 2 -382 3 -302 504 c-303 503 -303 503 -323 470 -12 -19 -148 -246 -304 -506 l-282 -472 -382 -1 -382 0 378 628 c208 345 430 714 495 820 l116 193 -435 725 c-239 399 -435 727 -435 730 0 2 170 4 378 4 l378 0 173 -292 c249 -421 695 -1157 701 -1158 3 0 115 177 248 393 l242 392 -362 3 -363 2 -191 328 -190 327 756 3 756 2 104 170 105 170 377 0 c208 0 378 -2 378 -5z"/>
 </g>

</svg>